<?xml version="1.0" encoding="UTF-8"?>
<svg id="_レイヤー_1" data-name="レイヤー 1" xmlns="http://www.w3.org/2000/svg" viewBox="0 0 300 40.69">
  <defs>
    <style>
      .cls-1 {
        fill: #505050;
        stroke-width: 0px;
      }
    </style>
  </defs>
  <path class="cls-1" d="M27.48,29.17c0,6.61-5.25,10.5-11.65,10.5H2.23c-1.23,0-2.23-1-2.23-2.23V3.19C0,1.95,1,.95,2.23.95h11.89c7.22,0,11.52,4.36,11.52,10.22,0,3.15-1.14,5.23-2.63,6.85-.9.97-.68,2.53.39,3.31,2.04,1.5,4.08,3.97,4.08,7.83ZM23.26,11.31c0-5.31-3.68-8.31-9.47-8.31H4.55c-1.23,0-2.23,1-2.23,2.23v11.21c0,1.23,1,2.23,2.23,2.23h10.53c1.01,0,2.04.11,2.83.23.67.1,1.35-.11,1.84-.58,1.72-1.61,3.5-3.24,3.5-7.01ZM2.32,35.39c0,1.23,1,2.23,2.23,2.23h10.67c5.52,0,9.81-3.2,9.81-8.65,0-4.91-3.88-8.38-10.77-8.38H4.55c-1.23,0-2.23,1-2.23,2.23v12.57Z"/>
  <path class="cls-1" d="M82.21,20.31c0-11.18,8.79-20.31,20.58-20.31s20.58,9.13,20.58,20.31-8.79,20.38-20.58,20.38-20.58-9.13-20.58-20.38ZM84.67,20.31c0,10.09,7.7,18.33,18.13,18.33s18.13-8.25,18.13-18.33-7.7-18.26-18.13-18.26-18.13,8.25-18.13,18.26Z"/>
  <path class="cls-1" d="M208.19,39.66v-6.81c0-1.65-.68-3.24-1.87-4.38l-22.63-21.63c-.71-.68-1.88-.17-1.88.8v32.02h-2.42V.95h1.5l25.43,24.3c.71.68,1.88.17,1.88-.8V.95h2.42v38.71h-2.42Z"/>
  <path class="cls-1" d="M278.67,39.66h-8.4c-1.23,0-2.23-1-2.23-2.23V3.19c0-1.23,1-2.23,2.23-2.23h8.06c11.11,0,21.67,7.09,21.67,19.56s-10.36,19.15-21.33,19.15ZM278.33,3.07h-5.74c-1.23,0-2.23,1-2.23,2.23v29.95c0,1.23,1,2.23,2.23,2.23h6.08c10.02,0,18.88-5.93,18.88-17.04s-9.06-17.38-19.22-17.38Z"/>
</svg>